REM DIRINDEX 1\2,1\3,1\4,1\5\6,1\5\7,1\8
REM DIRNAME folder01,folder02,folder03,folder04,folder05,folder06,folder07,folder08
TITLE ""
FILE "074 【074】Unit4 (0841 unfold_0852 shrink).mp3" MP3
  TRACK 01 AUDIO
    TITLE "0:"
    INDEX 01 00:00:00
  TRACK 02 AUDIO
    TITLE "2:cjc115_2866"
    INDEX 01 00:00:07
  TRACK 03 AUDIO
    TITLE "0:"
    INDEX 01 00:01:36
  TRACK 04 AUDIO
    TITLE "3:cjc115_2867"
    INDEX 01 00:01:46
  TRACK 05 AUDIO
    TITLE "0:"
    INDEX 01 00:03:02
  TRACK 06 AUDIO
    TITLE "4:cjc115_2868"
    INDEX 01 00:03:10
  TRACK 07 AUDIO
    TITLE "0:"
    INDEX 01 00:07:66
  TRACK 08 AUDIO
    TITLE "2:cjc115_2869"
    INDEX 01 00:08:73
  TRACK 09 AUDIO
    TITLE "0:"
    INDEX 01 00:10:18
  TRACK 10 AUDIO
    TITLE "3:cjc115_2870"
    INDEX 01 00:10:25
  TRACK 11 AUDIO
    TITLE "0:"
    INDEX 01 00:12:30
  TRACK 12 AUDIO
    TITLE "4:cjc115_2871"
    INDEX 01 00:12:40
  TRACK 13 AUDIO
    TITLE "0:"
    INDEX 01 00:15:70
  TRACK 14 AUDIO
    TITLE "2:cjc115_2872"
    INDEX 01 00:17:04
  TRACK 15 AUDIO
    TITLE "0:"
    INDEX 01 00:18:21
  TRACK 16 AUDIO
    TITLE "3:cjc115_2873"
    INDEX 01 00:18:31
  TRACK 17 AUDIO
    TITLE "0:"
    INDEX 01 00:19:73
  TRACK 18 AUDIO
    TITLE "4:cjc115_2874"
    INDEX 01 00:20:04
  TRACK 19 AUDIO
    TITLE "0:"
    INDEX 01 00:23:34
  TRACK 20 AUDIO
    TITLE "2:cjc115_2875"
    INDEX 01 00:24:43
  TRACK 21 AUDIO
    TITLE "0:"
    INDEX 01 00:25:72
  TRACK 22 AUDIO
    TITLE "3:cjc115_2876"
    INDEX 01 00:26:01
  TRACK 23 AUDIO
    TITLE "0:"
    INDEX 01 00:27:39
  TRACK 24 AUDIO
    TITLE "4:cjc115_2877"
    INDEX 01 00:27:47
  TRACK 25 AUDIO
    TITLE "0:"
    INDEX 01 00:31:02
  TRACK 26 AUDIO
    TITLE "2:cjc115_2878"
    INDEX 01 00:32:09
  TRACK 27 AUDIO
    TITLE "0:"
    INDEX 01 00:33:38
  TRACK 28 AUDIO
    TITLE "3:cjc115_2879"
    INDEX 01 00:33:42
  TRACK 29 AUDIO
    TITLE "0:"
    INDEX 01 00:36:31
  TRACK 30 AUDIO
    TITLE "4:cjc115_2880"
    INDEX 01 00:36:40
  TRACK 31 AUDIO
    TITLE "0:"
    INDEX 01 00:40:32
  TRACK 32 AUDIO
    TITLE "2:cjc115_2881"
    INDEX 01 00:41:42
  TRACK 33 AUDIO
    TITLE "0:"
    INDEX 01 00:42:72
  TRACK 34 AUDIO
    TITLE "3:cjc115_2882"
    INDEX 01 00:43:07
  TRACK 35 AUDIO
    TITLE "0:"
    INDEX 01 00:44:60
  TRACK 36 AUDIO
    TITLE "4:cjc115_2883"
    INDEX 01 00:44:67
  TRACK 37 AUDIO
    TITLE "0:"
    INDEX 01 00:47:70
  TRACK 38 AUDIO
    TITLE "2:cjc115_2884"
    INDEX 01 00:49:06
  TRACK 39 AUDIO
    TITLE "0:"
    INDEX 01 00:50:19
  TRACK 40 AUDIO
    TITLE "3:cjc115_2885"
    INDEX 01 00:50:27
  TRACK 41 AUDIO
    TITLE "0:"
    INDEX 01 00:54:11
  TRACK 42 AUDIO
    TITLE "4:cjc115_2886"
    INDEX 01 00:54:17
  TRACK 43 AUDIO
    TITLE "0:"
    INDEX 01 00:59:04
  TRACK 44 AUDIO
    TITLE "2:cjc115_2887"
    INDEX 01 01:00:12
  TRACK 45 AUDIO
    TITLE "0:"
    INDEX 01 01:01:33
  TRACK 46 AUDIO
    TITLE "3:cjc115_2888"
    INDEX 01 01:01:42
  TRACK 47 AUDIO
    TITLE "0:"
    INDEX 01 01:03:43
  TRACK 48 AUDIO
    TITLE "4:cjc115_2889"
    INDEX 01 01:03:51
  TRACK 49 AUDIO
    TITLE "0:"
    INDEX 01 01:06:49
  TRACK 50 AUDIO
    TITLE "2:cjc115_2890"
    INDEX 01 01:07:51
  TRACK 51 AUDIO
    TITLE "0:"
    INDEX 01 01:08:74
  TRACK 52 AUDIO
    TITLE "3:cjc115_2891"
    INDEX 01 01:09:09
  TRACK 53 AUDIO
    TITLE "0:"
    INDEX 01 01:11:11
  TRACK 54 AUDIO
    TITLE "4:cjc115_2892"
    INDEX 01 01:11:17
  TRACK 55 AUDIO
    TITLE "0:"
    INDEX 01 01:15:68
  TRACK 56 AUDIO
    TITLE "2:cjc115_2893"
    INDEX 01 01:16:73
  TRACK 57 AUDIO
    TITLE "0:"
    INDEX 01 01:18:15
  TRACK 58 AUDIO
    TITLE "3:cjc115_2894"
    INDEX 01 01:18:25
  TRACK 59 AUDIO
    TITLE "0:"
    INDEX 01 01:20:69
  TRACK 60 AUDIO
    TITLE "4:cjc115_2895"
    INDEX 01 01:21:02
  TRACK 61 AUDIO
    TITLE "0:"
    INDEX 01 01:25:04
  TRACK 62 AUDIO
    TITLE "2:cjc115_2896"
    INDEX 01 01:26:13
  TRACK 63 AUDIO
    TITLE "0:"
    INDEX 01 01:27:16
  TRACK 64 AUDIO
    TITLE "3:cjc115_2897"
    INDEX 01 01:27:22
  TRACK 65 AUDIO
    TITLE "0:"
    INDEX 01 01:30:09
  TRACK 66 AUDIO
    TITLE "4:cjc115_2898"
    INDEX 01 01:30:20
  TRACK 67 AUDIO
    TITLE "0:"
    INDEX 01 01:33:54
  TRACK 68 AUDIO
    TITLE "2:cjc115_2899"
    INDEX 01 01:34:61
  TRACK 69 AUDIO
    TITLE "0:"
    INDEX 01 01:35:69
  TRACK 70 AUDIO
    TITLE "3:cjc115_2900"
    INDEX 01 01:36:03
  TRACK 71 AUDIO
    TITLE "0:"
    INDEX 01 01:38:12
  TRACK 72 AUDIO
    TITLE "4:cjc115_2901"
    INDEX 01 01:38:20
  TRACK 73 AUDIO
    TITLE "0:"
    INDEX 01 01:42:12
